<svg width="32" height="32" viewBox="0 0 32 32" fill="none" xmlns="http://www.w3.org/2000/svg">
<circle cx="16" cy="16" r="16" fill="white"/>
<path d="M19.4856 22.4512C19.8801 22.0567 19.8801 21.4171 19.4856 21.0225C19.0912 20.6281 18.4518 20.628 18.0573 21.0223L17.3652 21.7137C16.5852 22.4931 15.32 22.4892 14.5449 21.7049L13.7848 20.9359C13.4101 20.5567 12.7983 20.5549 12.4213 20.9319C12.0459 21.3073 12.0459 21.916 12.4213 22.2915L13.95 23.8202C15.1006 24.9708 16.9661 24.9708 18.1166 23.8202L19.4856 22.4512ZM20.1485 16.0882C19.3757 15.3154 18.1126 15.3256 17.3398 16.0984C16.5781 16.8601 15.3331 16.8701 14.5714 16.1084C13.8097 15.3467 12.5748 15.3467 11.8131 16.1084L9.69847 18.223C9.32688 18.5946 9.32688 19.197 9.69847 19.5686C10.0701 19.9402 10.6725 19.9402 11.0441 19.5686L11.7281 18.8846C12.4775 18.1353 13.6924 18.1353 14.4418 18.8846L14.4966 18.9394C15.2762 19.719 16.5507 19.7084 17.3303 18.9288C18.1143 18.1449 19.3959 18.1342 20.1798 18.9181L20.8996 19.6379C21.286 20.0243 21.9125 20.0243 22.2989 19.6379C22.6853 19.2515 22.6853 18.625 22.2989 18.2386L20.1485 16.0882ZM23.5328 16.8237C23.9697 17.2606 24.6782 17.2603 25.1148 16.8231C25.551 16.3863 25.5508 15.6787 25.1143 15.2422L18.8841 9.01202C17.322 7.44993 14.7894 7.44992 13.2273 9.01202L6.8675 15.3718C6.49033 15.749 6.49033 16.3605 6.8675 16.7376C7.24464 17.1148 7.85608 17.1148 8.23327 16.7377L13.0127 11.9596C14.5748 10.3979 17.1072 10.3981 18.6691 11.96L23.5328 16.8237Z" fill="#365DFF"/>
</svg>
