<svg width="86" height="112" viewBox="0 0 86 112" fill="none" xmlns="http://www.w3.org/2000/svg">
<circle cx="36.5" cy="36.5" r="36.5" fill="#365DFF"/>
<path d="M44.4524 51.2198C45.3524 50.3199 45.3524 48.8607 44.4524 47.9607C43.5527 47.061 42.094 47.0607 41.194 47.9601L39.2332 49.9193C37.6645 51.4868 35.1199 51.4788 33.561 49.9015L31.4475 47.7631C30.5925 46.8981 29.1969 46.894 28.337 47.754C27.4805 48.6104 27.4805 49.999 28.337 50.8554L33.7484 56.2669C35.3105 57.829 37.8432 57.829 39.4053 56.2669L44.4524 51.2198ZM45.6009 36.3406C44.0388 34.7785 41.5062 34.7785 39.9441 36.3406L39.2166 37.0681C37.6545 38.6302 35.1219 38.6302 33.5598 37.0681L32.9241 36.4324C31.362 34.8703 28.8293 34.8703 27.2672 36.4324L22.1255 41.5742C21.2778 42.4219 21.2778 43.7963 22.1255 44.644C22.9732 45.4917 24.3476 45.4917 25.1953 44.644L27.0225 42.8167C28.5846 41.2546 31.1172 41.2546 32.6793 42.8167L33.4629 43.6003C35.025 45.1624 37.5576 45.1624 39.1197 43.6003L39.9696 42.7504C41.5317 41.1883 44.0643 41.1883 45.6264 42.7504L47.678 44.802C48.5595 45.6835 49.9887 45.6835 50.8702 44.802C51.7517 43.9206 51.7517 42.4914 50.8702 41.6099L45.6009 36.3406ZM53.685 38.382C54.6818 39.3788 56.298 39.3782 57.294 38.3808C58.2891 37.3843 58.2885 35.77 57.2928 34.7743L39.4563 16.9378C37.8942 15.3757 35.3615 15.3757 33.7994 16.9378L15.6673 35.0699C14.8069 35.9304 14.8069 37.3254 15.6673 38.1858C16.5277 39.0462 17.9225 39.0462 18.783 38.186L33.3099 23.663C34.8721 22.1013 37.4044 22.1014 38.9664 23.6634L53.685 38.382Z" fill="white"/>
<path d="M0 88C0 86.8954 0.895431 86 2 86H4.19056C4.90787 86 5.57025 86.3841 5.92649 87.0067L12.3518 98.2361C12.4051 98.3294 12.5043 98.3869 12.6118 98.3869V98.3869C12.7192 98.3869 12.8184 98.3294 12.8718 98.2361L19.2971 87.0067C19.6533 86.3841 20.3157 86 21.033 86H23.2235C24.3281 86 25.2235 86.8954 25.2235 88V109.34C25.2235 110.445 24.3281 111.34 23.2235 111.34H21.8731C20.7685 111.34 19.8731 110.445 19.8731 109.34V100.121L20.2021 96.0991C20.212 95.9779 20.1164 95.8742 19.9948 95.8742V95.8742C19.9196 95.8742 19.8503 95.9147 19.8135 95.9803L14.7831 104.94C14.4291 105.57 13.7623 105.961 13.0392 105.961H12.1843C11.4612 105.961 10.7944 105.57 10.4404 104.94L5.41005 95.9803C5.37324 95.9147 5.3039 95.8742 5.2287 95.8742V95.8742C5.10715 95.8742 5.01151 95.9779 5.02142 96.0991L5.35045 100.121V109.34C5.35045 110.445 4.45502 111.34 3.35045 111.34H2C0.89543 111.34 0 110.445 0 109.34V88Z" fill="#222222"/>
<path d="M30.2306 88C30.2306 86.8954 31.1261 86 32.2306 86H33.6506C34.7551 86 35.6506 86.8954 35.6506 88V109.34C35.6506 110.445 34.7551 111.34 33.6506 111.34H32.2306C31.1261 111.34 30.2306 110.445 30.2306 109.34V88Z" fill="#222222"/>
<path d="M40.6468 88C40.6468 86.8954 41.5422 86 42.6468 86H50.0275C51.3709 86 52.5753 86.2123 53.6407 86.637C54.7062 87.0381 55.5979 87.6044 56.316 88.3358C57.0572 89.0672 57.613 89.9402 57.9836 90.9548C58.3774 91.9457 58.5743 93.0311 58.5743 94.2108C58.5743 95.0366 58.4353 95.8034 58.1574 96.5112C57.9026 97.219 57.5436 97.8797 57.0803 98.4931C56.6402 99.083 56.1191 99.6138 55.5169 100.086C54.9718 100.491 54.3887 100.839 53.7677 101.129C53.6489 101.185 53.5713 101.303 53.5713 101.434V101.434C53.5713 101.501 53.5916 101.566 53.6295 101.621L60.0207 110.917C60.0517 110.962 60.0682 111.015 60.0682 111.07V111.07C60.0682 111.219 59.9473 111.34 59.7982 111.34H54.935C54.2769 111.34 53.661 111.016 53.2878 110.475L47.8941 102.643C47.7071 102.371 47.3985 102.209 47.0688 102.209V102.209C46.5154 102.209 46.0667 102.658 46.0667 103.211V109.34C46.0667 110.445 45.1713 111.34 44.0667 111.34H42.6468C41.5422 111.34 40.6468 110.445 40.6468 109.34V88ZM50.0275 97.1128C51.0003 97.1128 51.7646 96.8297 52.3205 96.2635C52.8764 95.6736 53.1543 94.954 53.1543 94.1046C53.1543 93.2552 52.888 92.5474 52.3552 91.9811C51.8457 91.3913 51.0697 91.0963 50.0275 91.0963H48.0667C46.9622 91.0963 46.0667 91.9918 46.0667 93.0963V95.1128C46.0667 96.2174 46.9622 97.1128 48.0667 97.1128H50.0275Z" fill="#222222"/>
<path d="M69.6493 87.3102C69.9385 86.5231 70.688 86 71.5266 86H74.9886C75.8272 86 76.5767 86.5231 76.8659 87.3102L84.7073 108.65C85.187 109.956 84.2208 111.34 82.83 111.34H81.1557C80.2976 111.34 79.5351 110.793 79.2607 109.98L78.2681 107.038C77.9937 106.225 77.2312 105.678 76.3731 105.678H70.1421C69.284 105.678 68.5215 106.225 68.2471 107.038L67.2545 109.98C66.9801 110.793 66.2176 111.34 65.3595 111.34H63.6852C62.2944 111.34 61.3282 109.956 61.8079 108.65L69.6493 87.3102ZM73.2576 100.652C74.628 100.652 75.6134 99.3049 75.1719 98.0076L74.2652 95.3433L73.4762 92.3967C73.4497 92.2977 73.3601 92.2289 73.2576 92.2289V92.2289C73.1551 92.2289 73.0655 92.2977 73.039 92.3967L72.2501 95.3433L71.3433 98.0076C70.9018 99.3049 71.8872 100.652 73.2576 100.652V100.652Z" fill="#222222"/>
</svg>
