<svg width="54" height="16" viewBox="0 0 54 16" fill="none" xmlns="http://www.w3.org/2000/svg">
<path d="M0 2.13826C0 0.957332 0.957332 0 2.13826 0C2.90515 0 3.61332 0.410695 3.99418 1.07633L7.79904 7.72603C7.83273 7.7849 7.89536 7.82123 7.9632 7.82123C8.03103 7.82123 8.09367 7.7849 8.12736 7.72603L11.9322 1.07633C12.3131 0.410695 13.0212 0 13.7881 0C14.9691 0 15.9264 0.957332 15.9264 2.13826V14.3108C15.9264 15.2437 15.1701 16 14.2372 16C13.3043 16 12.5481 15.2437 12.5481 14.3108V8.9162L12.7558 6.37666C12.7621 6.30017 12.7017 6.23464 12.6249 6.23464C12.5775 6.23464 12.5337 6.26027 12.5104 6.30167L9.46634 11.7234C9.1612 12.2669 8.58647 12.6034 7.9632 12.6034C7.33993 12.6034 6.76519 12.2669 6.46006 11.7234L3.41596 6.30167C3.39272 6.26027 3.34893 6.23464 3.30146 6.23464C3.22471 6.23464 3.16432 6.30017 3.17057 6.37666L3.37833 8.9162V14.3108C3.37833 15.2437 2.62206 16 1.68916 16C0.756264 16 0 15.2437 0 14.3108V2.13826Z" fill="white"/>
<path d="M19.0879 1.7111C19.0879 0.766086 19.854 0 20.799 0C21.744 0 22.5101 0.766086 22.5101 1.7111V14.2889C22.5101 15.2339 21.744 16 20.799 16C19.854 16 19.0879 15.2339 19.0879 14.2889V1.7111Z" fill="white"/>
<path d="M25.6648 5.92304C25.6648 2.65183 28.3166 0 31.5878 0C32.4361 0 33.1966 0.134078 33.8693 0.402235C34.542 0.655493 35.1051 1.01303 35.5585 1.47486C36.0265 1.93669 36.3774 2.4879 36.6114 3.12849C36.8601 3.75419 36.9844 4.43948 36.9844 5.18436C36.9844 5.70577 36.8966 6.18994 36.7211 6.63687C36.5603 7.0838 36.3336 7.50093 36.0411 7.88827C35.7632 8.26071 35.4342 8.5959 35.0539 8.89386C34.7097 9.15007 34.3416 9.36966 33.9494 9.55264C33.8744 9.58765 33.8254 9.66235 33.8254 9.74514C33.8254 9.78742 33.8382 9.82871 33.8622 9.86355L37.8977 15.7329C37.9172 15.7613 37.9277 15.795 37.9277 15.8295C37.9277 15.9237 37.8513 16 37.7572 16H35.368C34.5258 16 33.7376 15.5858 33.2599 14.8922L30.2408 10.5085C30.1227 10.337 29.9279 10.2346 29.7197 10.2346C29.3703 10.2346 29.087 10.5179 29.087 10.8674V14.2889C29.087 15.2339 28.3209 16 27.3759 16C26.4309 16 25.6648 15.2339 25.6648 14.2889V5.92304ZM31.5878 7.01676C32.2021 7.01676 32.6847 6.83799 33.0357 6.48045C33.3867 6.10801 33.5622 5.65363 33.5622 5.11732C33.5622 4.58101 33.394 4.13408 33.0576 3.77654C32.7359 3.4041 32.2459 3.21788 31.5878 3.21788H30.9864C29.9374 3.21788 29.087 4.06829 29.087 5.11732C29.087 6.16635 29.9374 7.01676 30.9864 7.01676H31.5878Z" fill="white"/>
<path d="M43.6003 1.8532C44.0094 0.739898 45.0695 0 46.2556 0C47.4417 0 48.5018 0.739899 48.9109 1.8532L53.2421 13.6406C53.6629 14.7857 52.8154 16 51.5954 16C50.8427 16 50.1739 15.5198 49.9332 14.8066L49.7326 14.2123C49.3721 13.1439 48.3702 12.4246 47.2426 12.4246H45.2686C44.141 12.4246 43.1391 13.1439 42.7785 14.2123L42.578 14.8066C42.3373 15.5198 41.6685 16 40.9157 16C39.6958 16 38.8483 14.7857 39.269 13.6406L43.6003 1.8532ZM46.2556 9.2514C47.1273 9.2514 47.7409 8.39451 47.46 7.56923L46.8918 5.89944L46.3936 4.03891C46.3769 3.97642 46.3203 3.93296 46.2556 3.93296C46.1909 3.93296 46.1343 3.97642 46.1175 4.03891L45.6194 5.89944L45.0511 7.56923C44.7703 8.39451 45.3838 9.2514 46.2556 9.2514Z" fill="white"/>
</svg>
