<svg width="41" height="46" viewBox="0 0 41 46" fill="none" xmlns="http://www.w3.org/2000/svg">
<path d="M20 12C18.35 12 16.9375 11.4125 15.7625 10.2375C14.5875 9.0625 14 7.65 14 6C14 4.35 14.5875 2.9375 15.7625 1.7625C16.9375 0.5875 18.35 0 20 0C21.65 0 23.0625 0.5875 24.2375 1.7625C25.4125 2.9375 26 4.35 26 6C26 7.65 25.4125 9.0625 24.2375 10.2375C23.0625 11.4125 21.65 12 20 12ZM8 24V19.8C8 18.95 8.21875 18.1688 8.65625 17.4563C9.09375 16.7438 9.675 16.2 10.4 15.825C11.95 15.05 13.525 14.4688 15.125 14.0813C16.725 13.6938 18.35 13.5 20 13.5C21.65 13.5 23.275 13.6938 24.875 14.0813C26.475 14.4688 28.05 15.05 29.6 15.825C30.325 16.2 30.9062 16.7438 31.3438 17.4563C31.7813 18.1688 32 18.95 32 19.8V24H8ZM11 21H29V19.8C29 19.525 28.9313 19.275 28.7938 19.05C28.6562 18.825 28.475 18.65 28.25 18.525C26.9 17.85 25.5375 17.3438 24.1625 17.0063C22.7875 16.6688 21.4 16.5 20 16.5C18.6 16.5 17.2125 16.6688 15.8375 17.0063C14.4625 17.3438 13.1 17.85 11.75 18.525C11.525 18.65 11.3438 18.825 11.2063 19.05C11.0688 19.275 11 19.525 11 19.8V21ZM20 9C20.825 9 21.5313 8.70625 22.1188 8.11875C22.7063 7.53125 23 6.825 23 6C23 5.175 22.7063 4.46875 22.1188 3.88125C21.5313 3.29375 20.825 3 20 3C19.175 3 18.4688 3.29375 17.8813 3.88125C17.2938 4.46875 17 5.175 17 6C17 6.825 17.2938 7.53125 17.8813 8.11875C18.4688 8.70625 19.175 9 20 9Z" fill="white"/>
<path d="M4.90482 31.2C5.84749 31.2 6.64082 31.5173 7.28482 32.152C7.92882 32.7867 8.25082 33.566 8.25082 34.49C8.25082 35.414 7.92882 36.1933 7.28482 36.828C6.64082 37.4627 5.84749 37.78 4.90482 37.78H3.18282V41H1.25082V31.2H4.90482ZM4.90482 35.974C5.31549 35.974 5.65615 35.834 5.92682 35.554C6.19749 35.2647 6.33282 34.91 6.33282 34.49C6.33282 34.0607 6.19749 33.706 5.92682 33.426C5.65615 33.146 5.31549 33.006 4.90482 33.006H3.18282V35.974H4.90482ZM11.0802 35.204C11.2482 34.756 11.5236 34.42 11.9062 34.196C12.2982 33.972 12.7322 33.86 13.2082 33.86V35.876C12.6576 35.8107 12.1629 35.9227 11.7242 36.212C11.2949 36.5013 11.0802 36.982 11.0802 37.654V41H9.27424V34H11.0802V35.204ZM19.9687 40.132C19.25 40.8413 18.3727 41.196 17.3367 41.196C16.3007 41.196 15.4234 40.8413 14.7047 40.132C13.9954 39.4133 13.6407 38.536 13.6407 37.5C13.6407 36.464 13.9954 35.5913 14.7047 34.882C15.4234 34.1633 16.3007 33.804 17.3367 33.804C18.3727 33.804 19.25 34.1633 19.9687 34.882C20.6874 35.5913 21.0467 36.464 21.0467 37.5C21.0467 38.536 20.6874 39.4133 19.9687 40.132ZM15.9787 38.886C16.3427 39.25 16.7954 39.432 17.3367 39.432C17.878 39.432 18.3307 39.25 18.6947 38.886C19.0587 38.522 19.2407 38.06 19.2407 37.5C19.2407 36.94 19.0587 36.478 18.6947 36.114C18.3307 35.75 17.878 35.568 17.3367 35.568C16.7954 35.568 16.3427 35.75 15.9787 36.114C15.624 36.478 15.4467 36.94 15.4467 37.5C15.4467 38.06 15.624 38.522 15.9787 38.886ZM28.2445 34V41H26.4385V35.736H24.3805V41H22.5745V35.736H21.5665V34H22.5745V33.93C22.5745 31.9793 23.6711 31.004 25.8645 31.004C26.3591 31.004 26.9051 31.0693 27.5025 31.2V32.852C26.8771 32.7773 26.3311 32.74 25.8645 32.74C25.3605 32.74 24.9871 32.8287 24.7445 33.006C24.5018 33.174 24.3805 33.482 24.3805 33.93V34H28.2445ZM29.8914 41V30.78H31.6974V41H29.8914ZM34.8764 38.242C35.1191 39.1193 35.7771 39.558 36.8504 39.558C37.5411 39.558 38.0637 39.3247 38.4184 38.858L39.8744 39.698C39.1837 40.6967 38.1664 41.196 36.8224 41.196C35.6651 41.196 34.7364 40.846 34.0364 40.146C33.3364 39.446 32.9864 38.564 32.9864 37.5C32.9864 36.4453 33.3317 35.568 34.0224 34.868C34.7131 34.1587 35.5997 33.804 36.6824 33.804C37.7091 33.804 38.5537 34.1587 39.2164 34.868C39.8884 35.5773 40.2244 36.4547 40.2244 37.5C40.2244 37.7333 40.2011 37.9807 40.1544 38.242H34.8764ZM34.8484 36.842H38.4184C38.3157 36.366 38.1011 36.0113 37.7744 35.778C37.4571 35.5447 37.0931 35.428 36.6824 35.428C36.1971 35.428 35.7957 35.554 35.4784 35.806C35.1611 36.0487 34.9511 36.394 34.8484 36.842Z" fill="white"/>
</svg>
