<svg width="20" height="24" viewBox="0 0 20 24" fill="none" xmlns="http://www.w3.org/2000/svg">
<path d="M8.4 20.4H10.8V19.2H12C12.34 19.2 12.625 19.085 12.855 18.855C13.085 18.625 13.2 18.34 13.2 18V14.4C13.2 14.06 13.085 13.775 12.855 13.545C12.625 13.315 12.34 13.2 12 13.2H8.4V12H13.2V9.6H10.8V8.4H8.4V9.6H7.2C6.86 9.6 6.575 9.715 6.345 9.945C6.115 10.175 6 10.46 6 10.8V14.4C6 14.74 6.115 15.025 6.345 15.255C6.575 15.485 6.86 15.6 7.2 15.6H10.8V16.8H6V19.2H8.4V20.4ZM2.4 24C1.74 24 1.175 23.765 0.705 23.295C0.235 22.825 0 22.26 0 21.6V2.4C0 1.74 0.235 1.175 0.705 0.705C1.175 0.235 1.74 0 2.4 0H12L19.2 7.2V21.6C19.2 22.26 18.965 22.825 18.495 23.295C18.025 23.765 17.46 24 16.8 24H2.4ZM10.8 7.2V2.4H2.4V21.6H16.8V7.2H10.8Z" fill="white"/>
</svg>
